<mxfile host="app.diagrams.net" modified="2021-07-16T05:09:55.045Z" agent="5.0 (Macintosh; Intel Mac OS X 10_15_7) AppleWebKit/537.36 (KHTML, like Gecko) Chrome/91.0.4472.114 Safari/537.36" etag="zNQghGDfQcmeWzpcRM5X" version="14.8.5" type="github">
  <diagram id="_nR6xY8we0qxXqq-9vcj" name="Page-1">
    <mxGraphModel dx="1090" dy="809" grid="0" gridSize="10" guides="1" tooltips="1" connect="1" arrows="1" fold="1" page="1" pageScale="1" pageWidth="827" pageHeight="1169" math="0" shadow="0">
      <root>
        <mxCell id="0" />
        <mxCell id="1" parent="0" />
        <mxCell id="La9pWvt4Xl5FRclwunAy-17" value="" style="rounded=0;whiteSpace=wrap;html=1;fillColor=#dae8fc;strokeColor=#6c8ebf;" vertex="1" parent="1">
          <mxGeometry x="300.5" y="290.15999999999997" width="300" height="78" as="geometry" />
        </mxCell>
        <mxCell id="La9pWvt4Xl5FRclwunAy-16" value="" style="rounded=0;whiteSpace=wrap;html=1;fillColor=#f5f5f5;strokeColor=#666666;fontColor=#333333;" vertex="1" parent="1">
          <mxGeometry x="300" y="195" width="300" height="78" as="geometry" />
        </mxCell>
        <mxCell id="La9pWvt4Xl5FRclwunAy-3" value="" style="shape=flexArrow;endArrow=classic;html=1;" edge="1" parent="1">
          <mxGeometry width="50" height="50" relative="1" as="geometry">
            <mxPoint x="200" y="530" as="sourcePoint" />
            <mxPoint x="250" y="480" as="targetPoint" />
          </mxGeometry>
        </mxCell>
        <mxCell id="La9pWvt4Xl5FRclwunAy-4" value="" style="html=1;shadow=0;dashed=0;align=center;verticalAlign=middle;shape=mxgraph.arrows2.arrow;dy=0.6;dx=40;notch=0;fillColor=#f5f5f5;strokeColor=#666666;fontColor=#333333;" vertex="1" parent="1">
          <mxGeometry x="210" y="219" width="81" height="30" as="geometry" />
        </mxCell>
        <mxCell id="La9pWvt4Xl5FRclwunAy-5" value="" style="aspect=fixed;html=1;points=[];align=center;image;fontSize=12;image=img/lib/mscae/Azure_Database_for_MySQL_servers.svg;" vertex="1" parent="1">
          <mxGeometry x="710" y="230" width="70.4" height="92.63" as="geometry" />
        </mxCell>
        <mxCell id="La9pWvt4Xl5FRclwunAy-6" value="" style="shape=image;html=1;verticalAlign=top;verticalLabelPosition=bottom;labelBackgroundColor=#ffffff;imageAspect=0;aspect=fixed;image=https://cdn2.iconfinder.com/data/icons/seo-web-1-filled-outline/64/algorithm-scheme-workflow-128.png" vertex="1" parent="1">
          <mxGeometry x="310" y="214" width="58" height="58" as="geometry" />
        </mxCell>
        <mxCell id="La9pWvt4Xl5FRclwunAy-7" value="" style="html=1;shadow=0;dashed=0;align=center;verticalAlign=middle;shape=mxgraph.arrows2.arrow;dy=0.6;dx=40;notch=0;fillColor=#f5f5f5;strokeColor=#666666;fontColor=#333333;" vertex="1" parent="1">
          <mxGeometry x="617" y="218" width="73" height="30" as="geometry" />
        </mxCell>
        <mxCell id="La9pWvt4Xl5FRclwunAy-8" value="" style="outlineConnect=0;fontColor=#232F3E;gradientColor=none;fillColor=#277116;strokeColor=none;dashed=0;verticalLabelPosition=bottom;verticalAlign=top;align=center;html=1;fontSize=12;fontStyle=0;aspect=fixed;pointerEvents=1;shape=mxgraph.aws4.bucket_with_objects;" vertex="1" parent="1">
          <mxGeometry x="420" y="211.4" width="55" height="57.2" as="geometry" />
        </mxCell>
        <mxCell id="La9pWvt4Xl5FRclwunAy-9" value="" style="shape=image;verticalLabelPosition=bottom;labelBackgroundColor=#ffffff;verticalAlign=top;aspect=fixed;imageAspect=0;image=data:image/png,iVBORw0KGgoAAAANSUhEUgAAAQYAAAB4CAYAAAAQalw5AAAgAElEQVR4Ae3dhZsdRfY38Pc/+UESQnANbsHdCe7umsCiQRZ3d3dd3CF4gGVZYHELiyy6wCKL7G69z+fMPZNKMxObSYCk7/P0dN873dVVp+p861id+n+l/bQUaCnQUqBBgf/X+N5+bSnQUqClQGmBoR0ELQVaCvyCAi0w/IIk7Q8tBVoKtMDQjoGWAi0FfkGBFhh+QZL2h5YCLQVaYGjHQEuBlgK/oEALDL8gSftDS4GWAi0wtGOgpUBLgV9QoAWGX5Ck/aGlQEuBXw0Y/ve//xVH+2kp0FLgt0eBqQ4MCQCTc/7tkamtUUuBGYsCUxUYgMF///vfXxw1SOT///Of/xSH7/7ffloKtBT49Sgw1YAhmT8Zvz4n4zvn701gyOd/PdK0b24pMONSoN+BIRk6GT6/1+ea3PXv9XX9fH1/e91SoKXA1KfAVAWGn3/6qXz//fflyy+/LB988EF56623yquvvFJeeuml8uKLL5aXXnyxvPy3l8sbr79e3hs7tnz66aflu+++Kz///PN4agXAaD8tBVoKTDsK9Bsw5GyfVfcdKPzjo4/K83/5S7nl5pvLOWedXY4+6o/l4AMPKgfsv3858IA/lMMPG1VOOenkctUVV5TRDz9c3nvvvW5wUEYrOSRF23NLgWlHgakCDP/+97/Lxx9/XF584cVy1513lnPPPqccMHL/stUWW5a11lizrLDscmXY0kuX5YYNK6uutHLZaPiGZY/ddivHH3tsufGGG8qYMWPK2LFjy1dffVV++OGHboNkKzlMu4HRvmnGpkCfgaEpKSAnULjv3nvLySeeVLbbZtuy6sorl2WWXKosMnShMv8885a555izzDX7HHGed665y0LzL1CWXGzxsvIKK5QN1lu/jBwxMgDi5b/9LcChlRxm7EHatn7aU6BfgYHq8OGHH5ZHRo8uxx5zTNlko43LQgssWAbNPKDMMmBgHK4HzjTzeMegmWYugwcMLLMOmqUMGTxrWW7YsmXkiBHlmquvLgkOreQw7QdH+8YZlwJ9AobmTA4Ubrv11nL4qFFl/XXWLQsvOLTMMWS2MsvAQcH0GD+BARgEQPzfTPFbgMIsg8vggYNCklh6yaXKjtvvUK6+6qowVlIrmu+bcbutbXlLgalLgSkGhlQhGAd//PHHEPmfefrpctQRR5b11l6nDJ1/gQCEkBQ6wDDb4FnL7LMOCTWCCjHPnHMVvyUoOLt/0EwDAiyWXmLJMmLffcv1111X3n333fLTTz+V//zcBkFN3SHRlt5SoExZzsfmzG02J/JfcfnlZfNNNi1D51ugzDnb7DH7h4TQUSVID1QL9oZVVlq5rLj8CiFVsDcM6UgLJAbgQJrw+7Clli777bNPefKJJ8q//vWvAIcEJef201KgpUD/U2CKJIYmMHz04Ufl9ttuL4ccdFBZdullgrFnHThLNzDMPmS2svgii5a1Vl+j7LDd9mX/ESPKqEMPK4ccdHDZbZddwyvhuQXmnS8kigQHADHrwEFl3bXWDnvD22+/Xb799ttWpej/cdCW2FJgPApMETAoIWdt16+/9no56YQTy/D11i8Lzjf/L4yNiy2yaNllx53KWWecWR64/4Hy4gsvhITBnUn9uOG668vI/fYra662eoADYAj1YlAXuHBvHnn4EeW+e+4Nj4d3Zwh1KzWM15/tl5YC/UKBKQKGBIW0Lzzz9DNlrz32CKlgjtlm7wYG9gRSwEbDh0csw9Njni5ffP5FN6h4nt3g3XfeKTdef0PEOiy/7HIhNaTtgdSw+MKLhKRx0QUXlnfeeaeVGPql69tCWgr0ToHJBoYEBWdGx3/+858Rs8C2wK4w6yyDuwyIAwaG9MAQeeQRR4SNACik2zEjGp2pB++//354NARBpUrBPuEQ+7D2GmuWY/54dHn1lVejNVmP3pvW/qelQEuBKaXAZAEDZkyGdi1u4YP33y833Xhj2AEwMdekY9CAgRG0tOfue5Srr7wqQp3r5+ty/O5j7YQwaRGRgqAy3oERcpmlli77jxhZXvjrX7sljnxuShvfPtdSoKVAzxToEzB888035c033ihXXnFFWXP11WN2Zx9I4+GKyy1fjjvm2DL6oYfLp598+gsVAGPXtoI33nijnHbKKWWTjTYK70UCw2yzDomoyT122708+8yzscgqQcE5r3tuYvtrS4GWApNLgT4BA/fhq6++Wi695JKyxqqr/QIYuCTPPP2M8uwzz5R/ftFlW6iBgNRgJaUDc/M6nH/ueWXbrbcuiy60cEgMA/5vpnBlLjj/AmWXnXYu7BTsEp71mVRgyPsmdJ5c4rX3txSYXinQZ2B4/bXXyuWXXlbWWO2XEsPKK65YTj3llPLUk0+Wzz//PJg4gSBVCUyejP7Wm2+Vs888q2y1+RYhIZAYAANDpPiHXXfepTB0JpDolGT03joo/+99CUr1Oevh7N7201KgpcBkBjhhnGQk14yGPArXXnNNWWfNtcLomGoEe4PYhEMOPrjccfvt5aOPPgrGw5QYO8txDRgYMtkYLMtWFgNkqhICo5ZYdLGyz157l78891wweDJ8npudmb/n2ftqQMjrrIdz3uvcfloKzMgU6JPEwMMgucodt99RNtxgeIj8EdLcWShllt90403K6aedFrYIhK6ZL6+Bwtdffx2Lr3becaey0IJDw2WZwCB0eqXlVyiHHnxIeenFl6KMZOiemNhvzf/nuyZ2rp/rqewZebC0bZ9xKDBZwNBkbLM9A+SjjzwScQYLzDd/iP3pZuRZENLMaCgvw3tj34tsTj/8+9/lpx9/Ctel5z94/4Py7NPPlPPOOaesufoascIyJI+ZB4bdAsBYqXnaqacWBsqeGD+7LBk/GLyTXJZEwh7y+WefheTCNfr3v/89PCr/+Mc/Qs359ptvoz4pzWQ5ec7y23NLgRmBApMNDIiSjJlqwV//+teYzVdecaVicVSEMg+aJWZ9s73fDxgxslx1xZXlr88/Xz75+OPy5T+/LJ99+ll56803Iw7i6COPKptsuFGsnQAK4iFEPw4eMCjWVozcb0S58YYbI94h34/5Xeen+bv/Y3Sp5V579bXyxGOPlzvvuCOCqa675tpy0w03lrvvuqs89eRT5e233i5ffNEVZ5FlNsvL97TnlgLTOwX6BAzJmO++82655KKLy0477BjRj4AhmLuzWlKA0uqrrFr22HW3kAoszRbefNcdd5arrryy/PHIcSsyRUt61qKq2QcPKXMOmT2Cm84+66zxvBshEfQCDD/+8EOs9iQZCL8Whn3FZZdH4hjqyIh99yv77rV3ATaHH3ZYGEjFWtx/3/3lhRdeiPyUck/mO7KdCRjT+6Bo29dSoF+AwUzLjciWQDpgG0h1ApNjduCwxGKLRSo3uRqoBhsP37CsveZaZflhy3ZHO/JA5ErLXI25w3bbBdPybLBH+GDSmlHzu7PVnn976aVy8003lVGHHVa23mqrCMBaaYUVwyBqOfdSiy8RkshyywwrK6+wYqgw2269TRg/b7n5lkgtl94SZSZI1O9sh09LgemVAv0CDJn09Z677w6XIg8CpgYQKT0ACNcJGpgfCPgtQcR1nZtBohf5IKWIe+3VV4M5awBoXss1+dmnn0byWUFX8kyuuvIqod7ku7wj35nXzuoFvHhEDvrDgQU4vPLKK6GGUJlaYJheWaBtV08UmCJgUFAyJYb5+aefIzzaKksi+5677R7h0E2Gx/R+S3CoGRNw5OE+jCw24ozTTi9jnnqqOw6iZlB1qL8DhccefTRWcW6z1VYRRj3v3POEMRMQhc2iA1De7X1+c/guwtLqUB4Q0sPpp50e6e15X4BDttm5/bQUmJ4pMMXAgChNxrSg6i/P/aVcdullkZZt2WWGxSyc6gEGTGAADjVAYFL3MVaSOKgY8jXweHz22WfhMWi+L79TL3gdXvjrCxEghakXW3iR8SSDBADvSUBqAkOChcVgCw9dqGyz1dblhuuvL2+++WZ4X7LNLTBMzyzRtg0F+gQMNaOYuc2swMEmMjdcf0M57JBDIzkLEZ2dAePVgJASRZ65N4GJXI8XnH9BrMgUGKXcphuxlhSAAjemvA7bbb1NhFNb/p0AUJ/zXUAhj6yX/4XRc9YhsVKU7WPvPfcKA6n9Lur2xpf2T0uB6ZQCfQYGdMmZG7O6DkZ9/Y1y5x13lj8edVQwK92dwc9KyZo5AYb8kNK8bbbJppEd+qILLyxcoNyMpIFm+c3vH//jH+Xee+4pR4waFSszlR9g0JEOvEOMxVJLLBE2h3XXXjvS1FsSLrV91gtQAAaH6/nmnicMk2wOTz/9dER6Mkh6fx59GRdZRk/nvpT7e362J1r4rbfP5N7fWznt7+NToF+AQZHZQcAhRXuz/Ssvv1IeeuDBIsnKfnvvEwFPmA7zYtguA+PwctIJJ5Tbb70t1kJIxpKg8J9O+HSW3zx79+uvv15OPvHEsuH6GxSLrZSd0oDl38Kr11lr7bLv3vvEIq0/3XxLhGmTas4688wIteadUJ+0N3jedzaKzTbZJPa5EP7dX6nltCOlnjj/57/lv47O7uD+PyN9sl+z/d3nagf0mia/uN99eTTc2DMSHfurrf0GDCqks7JDs+OcMbk8ChddcEEwKIazjwTVgbhuDYQNaj768MMwYtbP1uXlO/L/DII8EYyTdrJiV+ANSWDwHmqMlHGHHXJIuf6668MOYds8odzUgz8/+2zki5A3gtuSjSOfBw4kD7+fevLJodrkYrBmvSanQ7L+WUacZ1BgSFrkeTyaAMkGMOR9ee6+P0Ghun9y+qS9d3wK9CswKLrZYb6TIMQ6YP4tN988AGHIoFliJpeZScp5+1tyexLV0z2YZTln2TkQ/AYUhDTfftttETUJFHLGx9AJCgf/4cDywP33l/f//n756suv4jl2C0FMbCJcocqwHwbJoQkM4h5kqr7huuvK+3//+y8AcHySTvhb3aYJXU+4lOnjv9pf96dW9UaTnv7X02/5/PRBoV+vFf0ODNlZmDtdfDofOEgBb8s6YdOzzTK4DJ1v/rLBuuuVE48/oVi+rVMZGWtDY02a5kBiy8hl36SCmqFdC6gSbXnl5VfEbtpZtxw8eY5Vou++Gx4IcRNzVunslWNrPYB29plnRgh3sx51HSd27dmUdNQfMJFCvvj888hZ8dWXX4a6ggbT8ydpn8CQY0T7bXEIgN95++3YCZ1qyTOln3LicAbspNGg3xdfxORjArIgz3hTpve0n8mnwDQBBoPcYqnRo0cX8QXEdQY+MQMMgMcfe1ysZdCROtzRU6c2GVLyl2effbacecYZsU8FKaHbtjDzgFABTjvl1FA1MF4yZUok3uHaIDLonnziybLXnnuWJRdfIsABKDi6bBRrlWOPPjoS0zTrMSlk94zDJyUdoPbnP/858lWMefKpCPmmcmEE9ZleP0366QdjRB9p//333leuv/bacsH555dTTj65XHjBhRGfMvbdd7vBQXSrhXDPP/98F/3GjAkDsazjr7z8coBEjiN0rOk/vdK1P9vV78CQHaCzk7l1EBR/6MEHY8drtgUifxoFjz36mG6GM0Ac+WyWl51bl2sWEdBE4hCU1AQGKzWtxZAABjApCxBk+cry3eF/f/vb38phhx4aYd2kmnStul5lpZViLwwb62RdPDOpn7odX0a8x3Pltj/dGoNfMhsAds6ZZ5VLL76k3H/ffTFrTmrZv6f7kg5orx+odPqRi/u+e+8rF55/QTnqiCPKvnvvXbbfZtuy8YYbxepckazUTRICSYF9iAQqSRD6nX7qqeWM004rZ5x+ekh+b7z+Rtynb33yvb8nWv2ade1XYED8mnF99xkPGDbfIlyWCQxrr9lz9ufsyGZ59Xd5JB9+6OHIKym/ZAKDs5me/cIqyrHvji3ffftdNzAkEHhHDQw8KOwda6y2Wpl/7nlK7q9Jwsl8EH97afKBoUkXYvL1115XDj7woFgzIgWeQ3232HSzcsJxx5fXXnstaJd0+DUHSX+9u0kHoEANsLqV1CigDA0YpLmQGZN5raytOfXkU7qC3T79NNSv5/78XICoDYyA9iorjjv22mPPMvrh0XEfadBneqJjf/XHhMqZKsAgRFrOBeLeBx98ECnfx4wZUy684IIihiC8EgMHhUqxwnLLlb333DNSx8sfOXbs2FjvwBCJacezSjdmeIPKrHHKSSeH2gAMalVCHspLLr4kXKYklhyYUW5HoklgMHsRYzHrissv3+Wd6ERnclmutvIqYZx8+eWXJ3ugeW++x/W43JbjIjRnmXlAAGbXfp37hfdkehvQSX/g7jpUwWeeKeeec064mutAuATlWWYeGKBs9/SHH3qofPrJJyFhPP7YY7GGhsfIRFAf7FayhvE8AZ/pjY7RoKn8p8/AoIObB1DQgZYwW+F4ysmnlJEjRoZYuPDQodGJxHRSAzEdI+68446hw19x2WXl0dGjA1CUg6FyQIlp+Pmnn0IE9du/vv66vPrKK+XSiy/uMRntCp0s1aSKzFKtPCDgcG2QugZETzz+eNlphx3C9iE8O0O22ULWX3e97pk865MDfGJ91LxfPMTFF14UEZ4200kmoGLxikihL82dj2cd08unbo9cHGedcUbZcvMtIgzehMEobVtCIC/fpz4grVlIp38k2+maEJ4spzYmBOOJ7Uo2sTvvvLM7lH56pOPUHg/9CgyMagCBHs41ecF558VeEJZYLzds2TL/vPNFx6Xu7gzpRUNaHyE6crdddiknHn98+dMttxTiopwK//r6X+XHH34MRk6GNsBIJMDn/PPOixm9KTEQRXfafof4P0bjBSBaNsFBOaQVm/IyhgKFjGFQpnLouxecd35Yyr1bGY5JYVr31CqQnbsvufjisnMnf0UAw//NFG5c2/GRWl566aXoe8/29o78X2/nyRk8vZXR/L2nMpv31N/z/vo3dPv399+HUXjP3XePHB5zdTZBxtzWqrA/LbXEkhGDIiyd6kWN+/qrr8NIKXaFXYbEkP3uWX3HsyRjWK6xUYd8f9Ynz/l7b+e8b2Ln3p7v6feeyurpPr/9Wp8pBoZsSF1xoEDcO/P008uO228fzGpna6nZzIbQHBAkMOhQ15hQDILBACDoi7I52SSXgc6qTeCQ70yCiWGQgWnUoYeWYUsvE2WlSKlcZSrP2osbb7gh8k4ChyzHACVqipzEqLJQL7n44iHJqKuBJhBr2aWWjqXY6vLhhx/G8zWj1zTo6dr76vtDYrioIzEssuh4EgP9Wgi23JY+WddmuVlmAlSWX393z8Q+WX4+H9GXVQRmHU3onrw/y+2tHlle3l9/BwqiYiXs0c+AAEMHvQcOConNRsY2GGI85i168403y+effR4TRFf+jzHl9FO78n8YR/rdOFLGhhtsEOH4EwKGZr2yfs2z+yb0Ga+cjgTaLKP5vS6zfl7fTejeCdWjv//XL8BADGdLeHT0IxGaLP07oxHmzE5zTiDI353ziPs6HSz4yWAxG5g9LY4ihRAjWaWlhhOUJP8Do9WWm23evUFNvifPBgvx/OADD4wds4mjyrLVHSnCzCN7k1232TuoNp4BDAarQ4zEOWedXf787J/DoKUzswPrTu6tc5r3A4aLOqqEDX+TLsBzYsCQAynLrIFAnerveW9P9cr/5TnbM6nAkM85N9/bXVYFJPmb+3mIrFjt2qhoje4Zf7DVtwMGlqWXXCpAIVe2ct0aYxmb0A0Mp50Wk0j2dYLD8PUBwx2/kBjUwft9sv5Zr97OeX+Thvl8nuP5Hhi7p3LzmfrsvukOGIDCLTfdHKspGX4EBNEXdVh2FmZznUBQn92XaE+/jKNjf5BM1ox/+WWXhY4pZ+QD991fjjvmmLLtVlvHoigghIFTJ833eh/j1dyzdyWltZaCxXrUoYfFPpjOpIQN1ls/rOBAQb3NOp4dMnjWAAo6MBCS72FKjFkGQA4Q11MKDM1y6oE1set6YDfLqRllUsppPj+xZ5r3MwSLNSCl5UZFubXhwJkHBBBfcfkVIclR81J9RENl9RUYlJGfidU976vPzfb438TKaf6/Hg8Ter5+77S8nmyJoW5gGBk//TTcSJZYczUx1GGqJopjfEf+3tP3FCXr592/5GKLF2sZGKBkkpYjkqhJ9QAIdZk5y0dZAzrvm6lLWhHRKHgpXINrrhVp5qg5GUqd4JT1tLpSshib8r744osxQHNwJh0mpbPcWw+EKQGGfJ9yzCyYhU0Hk5GiMJBDjITvVKb07OSzWdesT5bjPsxGTWL/sO2g4Csu0zdefz28KGw9JLbvv/uum1G5odXBjB7v/vLL7rp4v3gD9fxfp85m/O++/Tayc/MmiTugNkb/GTMmjpkHxHoaRmuxCsCYkdl7p1RiyPY2+44hm/QyHv2yDSJQv/km6p90c05a1v2Z7vhPPvmk/P29v5e333or6IZ+6Eg6Epz1j4/+EXRCswS77EdtjHpUfaluyvbOaf2ZLGBoEpg76JHRoyM6bYP11gtQSCZrMreZ22+YDvMyOFIXfCc9GBzjPZMDJW0Fiy0W1mnLpInbCQqe9xzRX5lWV1pibeb3ex7ucw9wIBkwhDqrS/7P/7MO6kQFOWLU4bGkm06cTJkDbFI7q0m3yQGGHIz1QDSYDBoDzcwr8IdaJPGtDXn++vxfg6kxOqbPwdw8KwfzkvieHjMmdH6zOIYVNCae4pSTTirnn3tu2GieeOyxCFVOhjfAMQP3K2OpepDo1IUxV7yGe9X9px9/LMKd3xs7tohOZPOxsM2mRCE9dlRN4CAd3zlnnx0TjkVuPE/qCHwwSrfEcGoFLJV02lQlgv7E/CoLlzoBVSBoiT8jtsO1NnBdv/XWuMC4nvoh6aleuYr42quvCfcrFzr6oSOb22WXXlruuvOusB198vEnAajoD1SlDdBG9PNe/ejgtQEW7vOurENexw9T6c8UAYOKEqnlRLR+YOstt4zkKJjKTJ2ieDIlhjXrm6nXW2edsulGG5ett9gy1h8MX2/9stoqq8Zy7KELLBCMatYwQIBFrXI0r72HXr74ootFMtfNN90sMlUT/SV8mXfucYyP+R1ZZp6V6VpZgMEZYBiwu++6W7n1T3/qClHuRE7WDDqpfRIDs4oEnRxgyMEX7+14QoQOy5RFj77skkvLuWefExGDQojZQqwNkfmqHthZb2d998XnX0TKfDaWW26+ORL5HvSHP4SnxDJz6pXAoo02GB57icqsbWm7FP5yU2BUq1QxkVwYPDqkOSDCFctuk3EH3MwkBWsfeAvOOeusMBhvtcW4rQizb/UFbwRPxMknnVRkB7/u2msj7FmMC6BR9zFPMT6eOk7imAxgUMbf33sv7EvKtl8qj5PD9eWXXhpGb3uuAqHsg//993+xNN6eKMHQH38cDK2d+uGYPx4d9d56y63CM4J+VOvNN9k09l2lugrvliGdjezDDz6IegDz66+7rot+542ry623/CnAQX1Jdz5Zl0kde1N63yQDQ1bI2cDiS5aWnd+fjt9tUzCDdxgQMJiRMdkeu+8eHcmgJBZ+9MMPlwcffDBWNUrMwhIva7SkLTlIejobOMnU4fcftmzYIM4959ywAzz++OPlphtvLPvstVexdyZwSICqn63LHjTTgPA+hEQx2+wx2KhGXKZmFCKlGQ9TJR0mh+CeScZ0PanA0HzO4KC+vfjCi+HSBa5UKsFX0vMDWOBr89+bb7q5R2BQJsaS1dtglqPCDEsSY89ZfJFFYycwKiGpTH/YYFjgFWOwwf6H/Q8IWpMyrDi1hgSTq4NDnYD08ccdF5ILFcBiMWBllapIRWMibFFDhnT3d9qIZN9aYrHFuyVEHi5jhKSBUY090ZJ2RtfH2a/6GfizJdVxDE06UouMw0MPOSSYNmmHfq5lAePxePjBh0Ii8jzaO4ADUKAaWLF73LHHxmZL6669TuFqFrG5yEILB93QDx3trGbyMlkpf5cddwogv//ee8Nuhoa77bxLWX2VVcpqjpW7DmPYTvEmAjT0URfH1P5MEjA0CUsEEwF48UUXRUMxWXROQ3RHGDq6uHczitmJKEmkJAorhyhqjQLXFQ+D2cqqSCpJd7kpZnZmBf8zqOSFNLBZ+P/yl7+EFRq6Yrxrrr66mAFJJ8KluS11kvBmKowy+M7nnXOu6MSQaFZcOYKw5Jo0G/c0405JpzTpN6XAgF6kNNZ8W/+JFAS8yRjaRs0yoO65556Y1dEjQen7776PZepPPzWmnHfOuWF45QEAiBgKY2VZNXBmPyTjoafQcRKCdQ1WzIr1CACeeUDQFyPIs0GtMZFwHd5+++0RJ5IAAJDr9/m9PvK9AuCsp8GoXOJdwPBkhElnHINysn69AQNakHKs2TE2GD6N0ZQkjQvjZJsttyoXnn9+AJF3oV+A8g8/xJhld7n91lsjOxlAoL6m6qoeTdplO/J/GV8DUEl5fzzyqLLicsuNR3/3AmF8wQtnQvjNA4OEKgjDBWiW0QjEDQJ3UBuhuPlsK2dVJQMM5NM59ETqiLNBY8DTh80IwIahETjUBPWOHLhmMOIaY+RDDz4Uoj5dTFk6EKKnqEjn48HYdaedy/rrrhtRllDdADALiqozkGS2pg9KG//cn/8cTBXGnz5IConqUwoM9UBQBqASPizZLSCbbZZxgVhow91qU2DBZSl2m2nQ2uAW90GMPeG448pmG28SNMAMnqVCOXLwOtdH3RdULXt0kDQAOaMzkEqGoDqKX9l/vxGhK+sX9qjbb7s9VMm8b0LAkPeomz7CRBjaRIJZIxT+5HGh8Dk+jMGmjSHpCBTEvRx91FFlnTXXDFBQ17QtATPjBChQ1byHjSbpZ5yyBcQMv8su3bYuYz3V0KRfTa+go8mz4543KQEHk+b2225btthss25VfLx2rLd+ueO22wIM0TDbMSWTUzw8GX+mSGJgFGFbkKNANuXmwAoRf5lhIUKsk44AACAASURBVDYyThL/NMzgbDbK9zyImwww0sAJazUAs9MSeLwr1hPss2+Ig8TCmmB1+SzjksSmDsgYJGhqxL77hhRjJyo7UwEYgTRE3Q/efz8MQyE2NlSAyaDreLeqU87aricqMVQh0QoCpvb9NHuI5CTuB0Mz6M48MKQghlJ6OcYH3J7RBoOakRBwPvvMs6GCkKKof2iZAxh9Zxs8JAy48887bwxcAOrAMEMXWDDeE+ABSGYZHGnv2AOAFPE/mRmzURX+MHL/UHuAkzGgH0Q6kmqWXGyJMnS+jk2pwzApLWA04K8M4rkZnIRDfcCsjqee7F1iAAz1Wgljj8QCTADMxsOHl4UXXDDc4kKwSVoYlfrDxmCC8g59Vk9glsMzmu4/YkSMQYyejIwuxioJzvhHX5OPPKPos9hCCwcQ1ZJFAOhSS8XkOvecc3ZPfOxrYjq62/HJJ8E/9Tgfb4BNhS+TBAzNChH9Dz3k0NA555lr7vEkBoNN9ODee+xZro4lz29GowwOEkIyXIIB4vvNYQADhycefyICm+haXIY18Lg2WImpVk5ak6+sZIIEH795H3AgftIJuY/sUMXym5Zn30U+pmssXXzKq8vqC+3VRVlZ3oSAoWutxAFh2c93qtvVV10VbcYoQCEB08DEQABOZOY7b78ToICWSW+gwMrNMr7FZpvHoDUoQ8LriL4AZq7Z5wx3LhXNTKYP0ZnNQlg7FcKgDzDpgIO6OBIwGI6VTZK04Q97CObSD9Qg7aCGiCcZvt4God4loOR50YUXLtttu2055OCDy5GHHxFSEn0eyJPiSJ7yV0RIdLo7K1WCQZtEmyI4ULDoirclQWHujqQgZgYoMKAzZjI4AoVaUgAsFnyxi6m3iUmbAUNOWM6YnmoC+BgcBc3ZCnGvPfYo222zTVl3rbVCBQYexrFn5pptjqBXLa2hITsdA/Adt93+25UYcoAa4DrZzMNiT1pAjETNJBIDisUxiIygGMIgzYGqnDz8L5na2e+QmdRgSa1OQ0SMkMxgxjRzXnLRRTH7Zr3ULZkvy2+e67Y0/+e7j7Nysqx8ZkrPzfImCgz7dwFDhA5/+GHkKeAVIFKTotDDgUkNUoxLBbIx7zf/+ibomfTWBlIVgyzRnojvWQNRf+k7g3zJRRcP/Z8ad8zRR8dKWHYa4GufEExocRcVxLoXK07j+c5sn3VSXhMY9CugwqhAmThvpe1+++wbM2oCgmcd2nnC8ceHR4jHw0xPr88As4l7JdaPfVGpTp4xCZx95lll+222KYsvskhICsYScCA5bLTBBpHTE+ObRNDMWHLoO+5ILlh1ZjzMemozGqAfI+1KK6wQKi77hbwQNl/i9bjmqqvCloCuu+68c8RppNTn+Wy/c7f9ZcDA3zYwIIzDB6EgtrXudPy55pgzCJMNQyjRgsM32CBcYFxa6UfvjdGyfIMngUFqL3oywxb0zYFsMLtm7IGmbAICSJTRU/n5u3Lr5dvJ4Pluz8Y9ldch/5f39uWc9fAe1xMFho4q0WXLuS0iNRnK5utEZhpM6IDJqUOYlzQEFMxu+inb4yzGQGp9g5oEZmB73uGayMvGYtEb1U8MAnBmpyGRyWdhtn7m6WeKDNu2BFAWhlCG/if+ZnmAoVYltFmdjAXSi7iHjH+pjYdZLwa9m264IdybbE9m8G/+9a9udZRawiPCc9AdINUBFXXgYmWPEHtCUuI6lethsUUWCTAVck9SAAokCOqFUHmgUEuMaKfuaIDGjLqkVe8wFhNcgQIphTvyztvvCBCJoKaxY+NZdOSqJZ0+/tjjEfHJYEsNQ8OgX6f+yUvo+ZuWGBDG4UMdIOqzeG+80UYBAjozdUMD1qDYaosty8MPPxwgYkD41OXED9Uf/6sZ2zsYAPmwV11p5fE6QqcY3IJgDj9sVGT+6a38LDeYpFIN8tVZp56AIe/pj3PWY1KAgapAOqCPE3+J0lZ88qhY0GVA04lFcO6w7XbhfRHk9PVXX/1ipiM1+J2BlgsuvRho6EjvjrUmpC/+dLRPujTP7BaClszi9b6gBnOWaTx0A8P++0fEaLP9vFIkh1gVW83AAS7cjRsMj4lB3bXBJ+viuhsY6sjJDmMZg6Gb33Z7tOeqK64MepKs1BEzY0b05FZliCTBMExmPWtQNX4xNKMuIytVIctBP32x+qqrBfDyZAGjur5Zb2dlMYwD6vPOPTckYm7ZnPDQ7ncJDGHE+fTTcOUhvk6oG0M8Qzhi/pNPPtmN8DWhgmqNP9khyTisvxY6CZRZfdUu0c278n06g7hJr55YRqW6YyblulG1fvnabF9vEgM1wW7h1m+ce/Y5Ib7zmBjEabQyKIHCHrvtHhmMrMLEQPrGgDb4cqYzyxLBuTdzObk+yoHIwMewZ39QQAwUlJNAqZw8lGtiAA6kibvuuDOYgW/eGJgYMGQ5aOE9IhrPOuPMAH7PxwGwUreuEq14pn6+J2BIcMKslu+fe/bZMX4AolkeGGQ90XOdNdYshx18SAAwUCApZLtzHGqz9rJ58VaMF68z84AAhW6jr+0PPvooVKbsb3XOMl0rz0FqIpUxeOtfQDrrwFm6QSED/H43EsOkAoNFT/0DDBfOMMBg0LIZEMGBLsMV8Rfzyu7kMLjppgxlQFO+ipzh6wGYA9vaBiKyCELuxZzpEhz8dtwxxwZzEKPrAZ2MmGcDOge6gC/gJkho4w03LHPNMc7lpx09SQxZjndgbJZ/erhgpwAF4NABBklxbr311sh7yTbhmWSqfD5UiUpiAAwmDsBA/WQkZAdDr9TbtZvUJBfooQcdHGqR6EOfuu1Jv67x/lmAoOA7RsOcnBgexdKQjkWbciVnOc2ysu1JP2dlA0eqIEMtmnVJC10gqa9+N8AwKaqEtQhbbrFFn1UJ2ZO5RPtDlahzCui0/LhudmL+lvf0xznfkQOuJ4kBcxh41KR0dRl4BnoyDh2ZNEYM5WevZ/h8Rw5C39NGYem6fBXKSXAggZitbrrxptCDzYxZRtbT9/rwu/KNA+DAZSiSMQb2HF1bDxrcPQGDZ7Nc9Zbdm4Fa/2b7uoFhvfUiIlbMAgZSh4kBQ7YN85O8SAlsJ+iXwIC2JFDGwfvvuz9CkkkKPtn2ZF7f2dO45s3sPDUptVLpADW1Txh0xldkGdlO3+vD79kO72GHEEKe+60GHTpqXrfk9Fv1SmTDEE+juo2PW21V+F4RqwvpuvRMHWPGE3/fJ+PjPfeWIw8/vF+Mj1MCDHW7+woOyqoZoydgwLBomQatpGkyje8CmESHMtwJGGqW63sNDNycBjW1gy89ywJAZk5eHxJFGtyyzc49fZrli/c//thjQ02hQmadJwUYQpXoAH/WK4HBTGkDIFLMpAID+tVHd5mV3k764oaViZpb16dusz6qgYHIz6MBiLnOldkNDgMHxYbNslQz/HLHNunTpKH/JzC4pnqItyC9kBSVH23oqM2/aYmhblw2LNyVu+3eFevecVfWBENE+qP7/vnFP4Mp0n2G8MrJIzsDwfJ/dFiuIca1GcFdmaCAhgZHMphzDnDXPBPyUoi7yIFYAw6a1t+bbt8sC+OmR0NAWc0Myujt43/u7e6nt98OT0Y946lnX4Fh/SmQGBIUavq5znHpmmRjTU6diatuT5N+ES/x1FMR35BrMrKvADjGtdCJjSJVnpr+TTo26det6p14UneKOvVMcPhdAINGOXya+y9oCEKlUYtxrCvA6arY0wHqEz+BQw6qLC+Bwe+IS8w0i9lWjphJ/GuW35cAJxZhS2u7lwj/BgKccrCRtoi+GIu9gU0BTXOwswkIMbfmhAsPDeuB2PwursHiMgZGs2WWw3hrd/FDJsF4Ww9u5deMxI1pxrQAiNie5f8awJAMBQioScaNw7Xf0JgHgN1BnYErScm4NCmho7wRtVs7GDeyUZ8YMQreke/RV+wO9959d8TqKMcnx3VNt7xu9o+x/tyzVOYu71uWX0tOv+kAp2aDGFq4EqVwowc3GdegZq0VwDJlIdEXFHn7+iUk+vUMib4kVvsdfNBBUa+999qr7LfvvhEifdKJJ/7qIdEGRRoX0U6GawDrt5QgFpx//qALYyLxNQdhfa6BYmoDg6QuNsjZecedwsinDZMqMfS3jcF7AQB6AUHSVU4syXD+B8AEGYmTES+T3ohUN2N39Y5UO25G7wUYNtyo3Hv3PTGZTTIwdGJq9BlpmlRd21rwUhzpnfmt2hgSBesBF0at224Lplp26aXDEFOLbInavS6i+rFaRCUL0Vdf9fsiKvr1U089Va65+ppYmbfLTjvFarVkONZqkoeVe8PXXz92y5admm2kexFVJ6t0zCaVxJQzwKSem8Dak43BwAaoDFp2X9p9110jiAzwBjAwTs46a0TYbbv11rEgKW04dR+Z0bO+oUpcOC6CNBmkv1QJO3yZ7eS/UM/fAjBom9DtffbcK6RWHgpSmDEZdJxp5pCWgOsTTzwRayi6+4eaRHroAENPblFMq6wuW9r65bY/TbkqkYmO2I2MQ/T7XQNDLP+Vs++ii7uXXSN6DLwO4iEeg1RPy66//OeXEaUHEITJCiBBYIasWPXXx2XXosyuuvKqCOEV4w8MFl900YgHIEabOQwWZ9/NxIxzoui437qXXb/5ZkTcdQ+cHhaBTQo4NJ/vDRhISOogtl7sAV+8/ApBWwNy0CwhGovhsI7gtltvGy9rdYj5la1GxN01V10d5ZE+Ehj6YnzMmVWbBFYddfgRMTsT25PxJkWVmBoSA6bSNpGTJBkRjyIMTQL6O+snjkEQlcVz40leHeMjOmqfUGhZnUSECvNHP+M6j7XWWKPL5jOFxscP3v8gvEIWZbH5dAPD78n4iFB5sBlA0wcfkKhlx/EDPyaQqIV+fP1118cKQJF9nrfY5aILLggX0kbDh8eMmB3Y0zkHt/+FylIlarn77rvLY489Fivg+LHp5JgtUbh+ti6bT9o9ZgFggTmlHSM9TMtELRakCXCyJoGdRey+eAYDmxuYC8shBHe9ddaNdfwSrogk1CcGdNPqLRrv0IPHt3qzW4xzV944ye7K1MGJzYyfIjP32G23skRntSf6ouuvBQzer21CoiXvffbpZ2INRC4cUzf3aLtcnxY28QqIZaBSGN8Brh1g4JKVvxG4CppKQIjx1O2u/GN58IGu5eCeryXr5Jc8+5/+SUO8ICdh3Zttsmkkc4nx+XtSJXJWzIZrnIFobTpR0rqJCMRpGCGTIQ2UmJFXWinQ3F4C7BM6TK5IaMxibMBD/Iz8yoFWM3F9bRAAB8uCBa1YNrvjDjuULTbfPNw/QCGNT9mpWWaec7AoCzA4e477iDg/rVO7sS8IN37uuecClMx8dGK6sTaoI3qiFenKikmJaoGDgZeDzjUDpViDzHSkP+p2kjwkQBnPD19FO2IS5SSzOAMHoMB4xxVqjQAwtf5A+ej6awCD9zrUgX1KljArarU/dkPvrMJMGhgXJg7Rs1yj1GPjuwbWH2Uq++yzcvedd8XqUs9EGwGMAKcFh0bqATxArUqVLvmkJ/plHwmNpspYo9KUaGJ15W89wClBIRutYQ6N79KRHukkg10/RHWDxODLQdLdYVUy2Bzc7jXYkznHe8Yg6yzQIQZK3GIgZzJYfnjleN5zrs2qxEQqzGydTvT/PPK9GN89zoAomcX/sw7qhEmnZTJYDAUgc7ly7u0oUxIGtNHunENm66avRTgyWF17zTWxMKn2/ugjMSeCaCx1lg3IwNbG7B9gHsuNTzstovC8T6Yg6kKCgXLymqRgQCuTNMX1N2ypSgT+jQCDOJr77rkn4iAkWjWjC2kWIDbX7F1jzpgArugig5I8luIWeMaSoWWRlp3a6s7dd9m12z1vbAhwooaaQEin1o8Al5Q8km55VmZKCwDb4i5JidZZa60Yg8adcjMYy9j/XbgrEyAAQh4//LsrM8+jjzwayT2JWxgzmSsRPBnTOYEif6u/G7B+r5/3f9JGnT7een7vykVBdRlWdyazN8vCeAyOrNUi2ZxFGQIeDOP+rIMy6c3TOn08MMq9KzEiZn3s0UcjzyIVR52SPkKR6aYStDzyyCPjRUIakJ5nD6KS0LWTXp53aDejoQxClrnHeok6+WnV1/ocKJiFqSfS9dX5GbJMdPu1JAZ10IdAlIrAfhXSzWuvRVDTTttvH7Oze3KSCMlrk03ChWlpNXBAu5C8uDJ/+inW7Rz7x6O7tyzwHuME/YCDXJFWVpI8qCXJH82zMtVH0JTM0dzIGaejTLQDDo7fHTA0AcJ3xLAcd9Qhh0ZWXIPN7KSh2VnJpNnw+uy+ZEqrB+OYwIYz9993X4jA1hJYZYm5gUE32tbW3U7eAjMxgxMmGnXYqO4NZ+yVaSDJtJOqR86ov4UNZ9A3IxiBoxyNaIVmSV9LoM85+5xYTWhfCQPS4M7DQjOSz4SWXfPvy5IERCRUoVvLz+ndjKVUB+sTLIe2hNtyaTSX4CUHcg7u3wIw1IlaUqU68/QzyvrrrBPL1zF19rOVl1zrcicwXKfkZYZHSytK7Z0JDE0sCQw5iYTkse66YcuRZcvKUYvXuHPRT5o99KTyyRIm8lIi31qFyP5MvpgugIH4BBw0Worxqb1FHf8zw82kblHHZSWlG5HbSrmX//by+FvUXfXb3aIOMNQ6PfHSoDY4gyFnHhCzPppLyy7GpAaGGNiRqOWm2PaNhJEDOwFGeWwY6669dgQAEa2pL1defnlk4SLy6ld7SW6y0UYhPpspAwhmMsuNc7MZ4L86MDRSu5GcgIOYGkvacyvCqL/6kryWWiryLRjDpAbggHY+vGc8Z4zkwDWZ2PNoSCUGDiQo6Q4PGDkyjJ726GCHkbCFh4mkayPjtdZYM2xy6D54wDg3qv7sntx+b6pEUKqXCC+x7bwNsantdtWmtgsOLXPPOVfkb0DMblTsiE6Ii0j0fgN01e5NbQ/ul01tLTy6+cabYkGMpcg63EHvMwDMhtN8U9vJ2LvSzAV8ufgk4DVbY8wEBowoqk8EYjNwRzsN9EjtdsmlZYtNNwsJK+07Brly9EuUw5C72uoh5tKrGceI4Ax6ABYT5XvNmMpxuA6b0HjAcECP+Rh6W0SlDrl4iFg+JYuo1MPisDvvGH+3a+OWGsRYy5hLPZ1l4Lis2N4tr4JIUVGxaJafVOlIU1zJmWAF7YzdPEhQ880zTxm29NLh9uaxs05Fv5AQ1lp9jbLQ/At0G2q7QGWOSO+m3skX2R+/KxtDEivPyWTODDfAQS4FSUlt4MGQJtX58ssuFztEEc+bBOgakIuHIYZoL9BIDLrEIdKS2en6xx/GbV+Pob0v/cyR8KOxyEWn0d+AgnrIWwAUdHIagjCca+WQQKS4z7wFOs1gyXK232bbKIeo6d2ey3okLXo7uz/FetfvvvNuxIAYOMTJZM6uAKdlg/mFbud71NNBpCWqxmrJpZaO+tGVqW1oaGDLRiQ/Iqkqn9cvBrpUe2JFuIWpX9qXTK69BjYmZ4tgmATSGIjRTqyH+gUAzDwgdHSqF9F6SXEns42LEwg3cthKulLUNdsPGMblY+hadq0uyWBhI6gi/jyfNHDdvWy7Wnadz6MHd6WNberdrvVNxt9cesklIR0NGTy4DBrQBYz6wH4QPGwycRP9fZKGxo2+tzEMqYP64RmHd6OLd3fbLhZYIPoW/dCRes143KV+DQivBmM51ZAUh2bN/mjSIeujTlP7M8nJYHuriEo2j9jT8pNPYpZivZYvEEAINkKgJABi2hCGt8EmHFxnV1x2WagkVBOzeTIfxhKVxhhkkHin/f64TC+tNkfNweUdApu68g3I5de1GlF5OchcK9d3M7LYARvoMKDqwGQa3+UIkGU6A2JqRu+NNvm7utb309nlU5C3IoGB+2vuOeYoyw8bZ3z0nDpmPakUdFdpxlJdM6AMRu3F7NK521aOIRHgpZWdmzHTp0unTyXwbkDgWX2RTJ/tzoHvXP8GEPSZgbvZxhuXtddYI8DEPQ4gVXtXmu0fX2JYKSz86uDQf1zYk7O6MvJVdJ7VhpAYGsCgDox/PDXWmuw/cmRZftllgyGz3mghEGy3XXct99x9T6x+TC+D59GTGor+vBxyX6ZBVx/U9KvpFXTsuDgH/t9MZY5OFmxAzijMzQ6UtD9p7rpJB+NJPRxT+9NnYKgrqMLBaD/9HG4vhBS2a3nuM2OeDsu3qDQznAFAHI7w1b32KrffelvM2gw1EnjqkGCIKsTX4E5G8S56Y+wvcNK4/QUSGBBYvPwlF18S+wqaLbJ+yWjqmuUBB0Yjs7HwVHXDrDpY4lMrRg8fNSo22pncDvLefI9rM4+NRkghi0t225l5MJTZY+SIERFxl+/Jepq1gAOmF0ZrZgQG2qy96Oq7XaFETtKL9UEGJsm5ABz49tkj6LtmfANaGfXATGZBgzgqQzLAtSS+S28+IpYykyryeQym3BH77Bs0bba/e8Y//fTwDGX7kykEb9UbrXg+wdy1VY/C3U04PDXN54F4nT4+358xHoyqNs01WaF3thUNQvJaZdXxUrXl87xw6Pnaq6+Fsf3IUYd376mB9tn+LM+5pl+OJ9LYDtttF+niSLvNDWfiuZkHRBBbTYccD+oztT9TBRgMZJXPBvz808+hDsg9aKZDfIORTYHbUfZconzd8HxeWXV59XdSwMMPPRxSAYDRMfUAl6MPulsF+N23XYlIagb1jvq7jUkZiNZYbbUQ+7IjgYQZclJSyfXUYd5T19veFbI2c3HR+QGY2QND8LScfNLJYfeo6aGeSQeb2dogFTgQffN5ZThIPWwmbBJm53i/5zsqWFrpSS1777lneJK4bunGQseBC2OaQ4QglQwDYcKuLer2jzyJZl5ZnEggdT3sTyqz0UknnFhef+31bkDO+mMuqp2IQjNvV/1XjSQqEqmw/tPnAQAwbPaT54UqM+z1/Pw+3e7bnp4PleKVV0It4I1hU2FUdHBPC7zT19SGensCfaAupA7gbgGVXJCWncsfaZ0L7xbGR7eh888fNCQlUylIGNpn0Rn1VuwDKRUN2XMmRod6PPQ0zvrzt34FhrriNSNA6q+/+joCTQyY1FUDGNZauxx7zDEBDIieM0MOIr85suy6XDokH79s0Rg3gSFnUNGQBo+oNJ2pHJ3rHVlODQzN5eSJ/ERnKcgwMvtJ1iXrFT9M5E/dji7GeDEMheL5ua9YvBnGDMZHH3009OMsMp/N95GmSGL0dBugiEHgOcDo8lhI+25fUG7HWlLKNlPRgINAJRIXkBKae9CBBxaLzTAGOwT3rujKHbfbPmbXU08+Je6tN7Vl1GTTkCK9bgfXHws/6c8n2+CaeiO1+/PP/aXcdMON0faLL+y04aKLQo2g45Nwkhmz7srJ52Wxaj4vqS1pAeOm1Fm/3/MxHjs7XbNFyHGBdkHHCy+KTYFltsK0gvi8O+vvOlUSbTAeHnrggVibIZuTfSQAhU19qDSyUJPghI6TsrznvnvvC68YdZndyDZ+2hH0mwAd6na4npqffgcGlUXEmuEwIsY0CwjqMAPTyejujH1mPuJZEh3hszPqxivX7/m/Wle12KgJDKz3xE0zm9mnrleWo55mFcE7RGxxDrHcefauVGXE2/lJNmutFYY9kk2zHnUde7v2jMMnGZNIy0ZiUxbBNRYlSdOe29fXZdXPu1ZvTI+BqAwGqEM5AI6nJcvJZ5tn/aLdDLxjxowJ8f3SSy6NJDunnHxy5Io8/bTTY2/QW266uTz5xJNxL4b1rHYAZ9b+V1+ecDvy3drkWRIcie+N198I6UGdsw2YGni6z3M++bxzPP9dz8+jIRsO2tTPJy2zHN8DYN9/P7YgYDtg8FUPh2tp7qluOd48m+Mmy/FdOLrnH3rgwXLdtdeFNABoLdJCR2rbVVdcERKCNvK2ALdx7fgkbEcvvfBiJDeeFDpke6bWeZoAA+IZRGYnxhYzsK3Bhs43f4ix9f4QiOXIzqgb3uyY9O9DfOIgJiYtpMQgjHqPXXeLGQAT+mSH1ueI6Bs7NmbfjYZvGKHVgCvLsbGOFOtnnXlmuDyb9ajrOLFrz2Jq9MBgDKiYwGEwA9B6pmuWV9cbgFrow8/uWUeWgzZZTj6TZWX91QOt3UfvBySCcuQ5ZOQELm++8WZkhSahkDLc65l8Ntrx7beT3I58tzI8ay+MrHO2QX9om3vrT7bD2JiS55tlZdvRqqZdXquHe+p61HXIMaqunsHwVA/AZvEd+qGj2BLjT3i2+xIUahrymAUdvurqR/f1Roe6HVPrut+BoSfCmZGF9vKxCwAJS3rHxsAOQK/nOzboEBnBkuhZHgK49nv+D4ERmwXbwiyxEGwXJAcHizHAkA3qgfsfiNkO8T2XjEnqsGmNjUKIekKSa4BRTq5JIOYT/Zr1mJzOyfZM7Nxbmflc/j+/T+yc9zu7t6bjxJ7t6f+T+nz93ny38vLTU9n1//O+POf9ze/5e57z/72d876JnXt63jN1+90zsXKa/5/U53t6/7T4rV+BoUmwJAZRiy5Kh2OkCa9EJ1RZ0Iz9EYFGvQgln50QAQEIJqcq0OEYyYBDMrb3BDisvkY57JBDyw3XXR9GK0k46Y7CVenpjGBS0TGukWY8D2ASZKgkREISj1mz2c7J7ai6bdqQQJhtdXbPhD51GfVzdXl5T0/l5P+c6+f/+x/pzcaFU2f+hfqe+tl8vn5v894Jvd+9fW3/lDyvTln3ur7Na/f09OmJBkGrKhQ925a0qevZ0/P1/7Mevb2/pzr152/9BgzZUA0iIRDPMCCdj+7FuJSpxlNET/caQ9dJJ5wQLkv7Dcg8JCBHOZFRpzL+5HvyjBhENiG7jD22r0tg8B4zPiMnQBIPzz0ktsKW7KzB1AMrFAGU+gADzznPPqQrd6DYAEY+uivxzrv72nFZRg6aLC/P/j+hT7Y/789zXd7EylB+1iOfn1RgyLrlGP59ggAACbFJREFU8/V7u8uaAMDV9Z8Shujr8z22vcHU2uE9E/rU9ZhcYMg6KMO7poQOE6pbX/7XL8CQDUtCpu5vFR4f7bZbbxNuSa4crkqMm8yLGSPOfPkVIjjHBhwXXnBhJGxNcGiW3/xOneD6OYIqMGzZKBsgJDB4B0MnlUA8ApDg67Y2wDJuPnfqjfvZFjJYxUpG2YFZ6wFWrfOpg6Mvnyyjp/OkltvTs/lbf5SRZdXnZrn1/5rXzXub35v35/fmfb19z/ub597ub/7efK75vXl/b9+bz03se7Oc3u5v3jetvvcZGLJBQIHeTmdn1TUb8wXT8TM6DLOmCzDBoT5jTuvb7XcgAEgiC1KHchmBEni803V+B0SMPd4pKw+VIiP6vLM+8n01cGS9/A8oUEcAmMg4SWPlM6B2+GR7p1UHte9pKfBrUKBPwNBkUKBgfcNll1wa4b6YfL555o3w4pyFMV83OIgMGzAgFrOYrYUhc2XKyGQFmozO4Qv/7LMAh+b78nuqLuwYXEMJDpYEex/GT5tBShEJDPm77/kbUBCkQtKhQrDS8xb4tMDwawzT9p3TmgJTDAzJIGZtkY08Cqz7cvZbUWa1Xz07JwPGb50MOLHVF4YcOG4BDcZ1r8VWovhOP+20Sd5HgU9dHkKptkQQLrPk0mXeueYZTz2YEDCkysHYuP2220VKMNGQYevoRL1lu6d1R7XvaykwLSkwRcCQM3WK8kBBDL78CJmfkDhOMshZOBkyfuvs00hCGNxY+hqg0FmQstCCQyMCj2HReot8XzJn88xDARyef/75YvtzsfASuUiyGqvaKrUiJYmUFNQrjJRrrxPrJeR6FMzEvVkbhbyz/bQUmN4p0C/AIDhGtmKzuyzHmCylBYBgJmZnEHDE2Mfwt+nGG0fsgbUSPAKY0n0YmNrhOeAydIEFYsGJrE1chWZvnwSF7KD87oyZ2Tl4H4Qxi+NncCQJ2LbdUleGSPH/4hb8Lnya6iCs9U+3/Km8N/a9iKlIMHLO63xne24pML1SoF+AoZlfIKUEs79roGCBilgDG4TaD0EW37vvvDMMezwXFt7wTgAHoAAcZh88JMBBEBTbgXwCAqUwf0+Mmr8DD+Ag1Lcrlv+ByKJzykknRzwDzwcXpYxEhx92WDn1lFNiD4IH7rs/7v/wgw8jKjHfkYCg/PbTUmBGoECfgIGIzVtgL0geCNKCACFgABQwOWOiwKEDRowM8d6CEaGjgp6k5hYuCiSOPuqokCByGfGsHXVC6qtYirzfiFhoYmViAkAybHZU83f/Vz9uT/aPJx9/otx1x51RjihGWZ3uvuvu8tSTTxXbuZF8eEASAJrl5Xvac0uB6Z0Ckw0MmCUPTMdaz3PAxbhAJ8FJqhHcj8OWXiYyPFvFRjzHpJhP6LO8/WL9xeGTBiQjJdIzPIZNouNVsITVajUb1lhkNCGGzbrFbN8JrfYuLs3PP/s8bCHARWiznYCskKOifPvNtz26RbO86X0gtO1rKVBTYLKAocmQGFxo8R233xFLdIn/pAXAwM6AoUUNnnHa6bEYx4uT0epzuBu//ro8MvqRWKvO6EjaUIajzodgHX+zHnWD8h0BDFXkWv2+CV3Xz7mv/bQUmBEp0CdgEAkoTFj2ZUbEtC0kOIhjsD0a4BCohNFS/UgGJHWE9PDjj7FkWOILZTFGJjAwQsqbZ02FOAllNJm72XnN/3uf55pH1sO5fqZZXvu9pcCMRIE+AUOEPndiF2S+ISlQAUINGDAwwokZ9uQ5yMVHgMCRDAkUHL7n7smyPMl6Axik0+apIH3suvMu5Zmnn4nnMbFPMnNvnZb/V34TFHzPejhnmb2V1f7eUmBGoUCfgUF8gUhHaamawCB5ik0+am9CMicmxIwJFL5LjHH+uecV27yLPExgoKJYHLXLTjuHWzSBRCcl40+sw/K+CZ0nVkb7/5YCMwoF+gQMDI/ChWWnYTRsAoM8jLI0j35oXJbmnKGTQWugYFi0AasMxiSEVCXsQ0mCEFH57DPPTpbEMKN0ZNvOlgL9SYE+AYOIx0xsKoAIMORW7TYfkQDThiVXXdm1CAkYJDDkOQFCo6Qls2/jcsOGjZfW29qFZZZaOuIOZHLOZ5zbT0uBlgL9T4HJAgavr5mSN8HCKUlWNt90064didIzMWBgLHWWLv7Iw4+IJCfyLvJkJCjkmRFTMJJU2ZLFZhQkoHEIkBLkJCrx1VfGzybd/yRpS2wp0FJgsoEByRIcMDZwYEOQAYnnwHLnkBwGDAyXIya3/8E5Z50dm6JmUlZleJ69gGfjxutviLUNdqzK0OiMnLT3gjgJGaAkcclnPe+6/bQUaCnQvxSYImBQhQQH1zIondTJoDR0vq4MSlyW6baUH8HmJgyRUo0LU5YJV3ZkqcilXBu5336RuwGQ8GrEYirp1QYOinz9pA7b3tVbr7FPtMDQvwOiLa2lAApMETA0Z2wxCnL5H3LQwZFoBSDMOrArRRrpYfYhs8V2aDb1NPPvP2JELG6Sb8GGnyQKMQ+pQqS7M8oZNEuhjtgrgdeiv1Krtd3fUqClQO8U6BdgsGCJBGBT2M032TQWQ1EpMDhgGNhJliJQibchdjVaaeXYns539+aKygQFHglGR4Cx3777ho1C3ATVI6WVVlrovWPb/7QU6AsFpggYvDCZM+0MwEFeRCslbWNmu+9kcp4KqoFAJfYDDG+xlVBnv4Xa0Fk0FerHTF1GRzsKUzGkbLPfAVD4z8/jUsv3peHtsy0FWgr0ToEpBgZF/kKl+PDDyPR8xKjDywbrrFsWWXBoLJtOYAAAIUHI19BZB2H3X78lOAATi6/kTLAHIxWCNAJ4mu/rvVntf1oKtBToCwX6BAxenJKD639//33sDfHI6NGx0akVkVQFjE8SCGmgyvmYAUxAQpq3AIfBs0amZzs+Byi8/HKAQro56/f1peHtsy0FWgr0ToF+BYZ8Dc+B2IZTTjwptqSTtYldQfSimAQSAXXCmUpB7RAMtfIKK5QN1lu/jBwxMpKwtpJCUrQ9txSYthToMzBkdeuZPLaO+/jjcEfKw3Du2edEjILgJdmfbRduy3URjrZft1+k7E7HH3tsAIINVseOHdtKCknc9txSYBpTYKoAgzYAikwSa19K+RcFOVlWffCBB5UD9t8/wp8PP2xUkXLNegu7Ydu/IXdTVgbjZhvINI1HRfu6GZ4C/QYMScmUHDDzzz/9FOAga5MsTdK42fbdFuMvvti19bvtw+0IbDdgSV8SFHJJdJaX5bfnlgItBaY+BaYqMORMn8yd57pZ+Vvz3EoKNZXa65YC05YC/x+lx3FrVRR3HwAAAABJRU5ErkJggg==;" vertex="1" parent="1">
          <mxGeometry x="413" y="318.16" width="80" height="36.64" as="geometry" />
        </mxCell>
        <mxCell id="La9pWvt4Xl5FRclwunAy-10" value="" style="shape=image;html=1;verticalAlign=top;verticalLabelPosition=bottom;labelBackgroundColor=#ffffff;imageAspect=0;aspect=fixed;image=https://cdn2.iconfinder.com/data/icons/seo-web-1-filled-outline/64/algorithm-scheme-workflow-128.png" vertex="1" parent="1">
          <mxGeometry x="529" y="212" width="58" height="58" as="geometry" />
        </mxCell>
        <mxCell id="La9pWvt4Xl5FRclwunAy-11" value="" style="shape=image;html=1;verticalAlign=top;verticalLabelPosition=bottom;labelBackgroundColor=#ffffff;imageAspect=0;aspect=fixed;image=https://cdn2.iconfinder.com/data/icons/seo-web-1-filled-outline/64/algorithm-scheme-workflow-128.png" vertex="1" parent="1">
          <mxGeometry x="313" y="305.48" width="58" height="58" as="geometry" />
        </mxCell>
        <mxCell id="La9pWvt4Xl5FRclwunAy-12" value="" style="shape=image;html=1;verticalAlign=top;verticalLabelPosition=bottom;labelBackgroundColor=#ffffff;imageAspect=0;aspect=fixed;image=https://cdn2.iconfinder.com/data/icons/seo-web-1-filled-outline/64/algorithm-scheme-workflow-128.png" vertex="1" parent="1">
          <mxGeometry x="535" y="310" width="58" height="58" as="geometry" />
        </mxCell>
        <mxCell id="La9pWvt4Xl5FRclwunAy-14" value="" style="html=1;shadow=0;dashed=0;align=center;verticalAlign=middle;shape=mxgraph.arrows2.arrow;dy=0.6;dx=40;notch=0;fillColor=#dae8fc;strokeColor=#6c8ebf;" vertex="1" parent="1">
          <mxGeometry x="210" y="320.8" width="81" height="30" as="geometry" />
        </mxCell>
        <mxCell id="La9pWvt4Xl5FRclwunAy-15" value="" style="html=1;shadow=0;dashed=0;align=center;verticalAlign=middle;shape=mxgraph.arrows2.arrow;dy=0.6;dx=40;notch=0;fillColor=#dae8fc;strokeColor=#6c8ebf;" vertex="1" parent="1">
          <mxGeometry x="614" y="317.48" width="79" height="30" as="geometry" />
        </mxCell>
        <mxCell id="La9pWvt4Xl5FRclwunAy-19" value="" style="html=1;shadow=0;dashed=0;align=center;verticalAlign=middle;shape=mxgraph.arrows2.arrow;dy=0.6;dx=40;notch=0;" vertex="1" parent="1">
          <mxGeometry x="505" y="90" width="55" height="30" as="geometry" />
        </mxCell>
        <mxCell id="La9pWvt4Xl5FRclwunAy-20" value="" style="endArrow=classic;html=1;" edge="1" parent="1" target="La9pWvt4Xl5FRclwunAy-8">
          <mxGeometry width="50" height="50" relative="1" as="geometry">
            <mxPoint x="380" y="238" as="sourcePoint" />
            <mxPoint x="410" y="238" as="targetPoint" />
          </mxGeometry>
        </mxCell>
        <mxCell id="La9pWvt4Xl5FRclwunAy-22" value="" style="endArrow=classic;html=1;exitX=1;exitY=0.5;exitDx=0;exitDy=0;" edge="1" parent="1">
          <mxGeometry width="50" height="50" relative="1" as="geometry">
            <mxPoint x="364.5" y="331.98" as="sourcePoint" />
            <mxPoint x="416.5" y="332.6340880503144" as="targetPoint" />
          </mxGeometry>
        </mxCell>
        <mxCell id="La9pWvt4Xl5FRclwunAy-23" value="" style="endArrow=classic;html=1;exitX=1;exitY=0.5;exitDx=0;exitDy=0;" edge="1" parent="1">
          <mxGeometry width="50" height="50" relative="1" as="geometry">
            <mxPoint x="483" y="333.48" as="sourcePoint" />
            <mxPoint x="535" y="334.1340880503144" as="targetPoint" />
          </mxGeometry>
        </mxCell>
        <mxCell id="La9pWvt4Xl5FRclwunAy-24" value="" style="endArrow=classic;html=1;exitX=1;exitY=0.5;exitDx=0;exitDy=0;" edge="1" parent="1">
          <mxGeometry width="50" height="50" relative="1" as="geometry">
            <mxPoint x="470" y="233.5" as="sourcePoint" />
            <mxPoint x="522" y="234.15408805031439" as="targetPoint" />
          </mxGeometry>
        </mxCell>
        <mxCell id="La9pWvt4Xl5FRclwunAy-25" value="" style="aspect=fixed;html=1;points=[];align=center;image;fontSize=12;image=img/lib/mscae/Azure_Database_for_MySQL_servers.svg;" vertex="1" parent="1">
          <mxGeometry x="130" y="240" width="70.4" height="92.63" as="geometry" />
        </mxCell>
        <mxCell id="La9pWvt4Xl5FRclwunAy-27" value="全量导出" style="text;html=1;strokeColor=none;fillColor=none;align=center;verticalAlign=middle;whiteSpace=wrap;rounded=0;" vertex="1" parent="1">
          <mxGeometry x="313" y="198" width="50" height="20" as="geometry" />
        </mxCell>
        <mxCell id="La9pWvt4Xl5FRclwunAy-28" value="全量导人" style="text;html=1;strokeColor=none;fillColor=none;align=center;verticalAlign=middle;whiteSpace=wrap;rounded=0;" vertex="1" parent="1">
          <mxGeometry x="535" y="194" width="50" height="20" as="geometry" />
        </mxCell>
        <mxCell id="La9pWvt4Xl5FRclwunAy-29" value="COS/CSP" style="text;html=1;strokeColor=none;fillColor=none;align=center;verticalAlign=middle;whiteSpace=wrap;rounded=0;" vertex="1" parent="1">
          <mxGeometry x="421" y="192" width="50" height="20" as="geometry" />
        </mxCell>
        <mxCell id="La9pWvt4Xl5FRclwunAy-30" value="增量导出" style="text;html=1;strokeColor=none;fillColor=none;align=center;verticalAlign=middle;whiteSpace=wrap;rounded=0;" vertex="1" parent="1">
          <mxGeometry x="317" y="290.16" width="50" height="20" as="geometry" />
        </mxCell>
        <mxCell id="La9pWvt4Xl5FRclwunAy-31" value="增量导人" style="text;html=1;strokeColor=none;fillColor=none;align=center;verticalAlign=middle;whiteSpace=wrap;rounded=0;" vertex="1" parent="1">
          <mxGeometry x="537" y="290.15999999999997" width="50" height="20" as="geometry" />
        </mxCell>
      </root>
    </mxGraphModel>
  </diagram>
</mxfile>
